<svg width="1524" height="300" viewBox="0 0 1524 300" fill="none" xmlns="http://www.w3.org/2000/svg">
<rect x="9.16031" y="59.1603" width="253.435" height="181.679" rx="36.6412" stroke="white" style="stroke:white;stroke-opacity:1;" stroke-width="18.3206"/>
<ellipse cx="100" cy="149.618" rx="16.0305" ry="28.626" fill="white" style="fill:white;fill-opacity:1;"/>
<ellipse cx="170.991" cy="149.618" rx="16.0305" ry="28.626" fill="white" style="fill:white;fill-opacity:1;"/>
<path d="M403.045 196.5H387.811V175.875H334.256V196.5H319.021V154.488C319.021 148.355 320.076 142.711 322.186 137.555C324.295 132.398 327.225 127.965 330.975 124.254C334.725 120.543 339.158 117.652 344.275 115.582C349.393 113.512 354.979 112.477 361.033 112.477H395.369C396.424 112.477 397.42 112.672 398.357 113.062C399.295 113.453 400.115 114 400.818 114.703C401.521 115.406 402.068 116.227 402.459 117.164C402.85 118.102 403.045 119.098 403.045 120.152V196.5ZM334.256 160.641H387.811V127.711H361.033C360.564 127.711 359.568 127.789 358.045 127.945C356.561 128.062 354.822 128.395 352.83 128.941C350.877 129.488 348.807 130.328 346.619 131.461C344.432 132.594 342.42 134.156 340.584 136.148C338.748 138.141 337.225 140.641 336.014 143.648C334.842 146.617 334.256 150.23 334.256 154.488V160.641ZM436.15 196.5H420.916V112.477H436.15V196.5ZM536.873 188.824C536.873 189.918 536.678 190.934 536.287 191.871C535.896 192.809 535.35 193.629 534.646 194.332C533.982 194.996 533.182 195.523 532.244 195.914C531.307 196.305 530.291 196.5 529.197 196.5H474.236C472.83 196.5 471.307 196.344 469.666 196.031C468.064 195.68 466.463 195.152 464.861 194.449C463.299 193.746 461.795 192.848 460.35 191.754C458.904 190.621 457.615 189.273 456.482 187.711C455.389 186.109 454.51 184.273 453.846 182.203C453.182 180.094 452.85 177.73 452.85 175.113V133.863C452.85 132.457 453.006 130.953 453.318 129.352C453.67 127.711 454.197 126.109 454.9 124.547C455.604 122.945 456.521 121.422 457.654 119.977C458.787 118.531 460.135 117.262 461.697 116.168C463.299 115.035 465.135 114.137 467.205 113.473C469.275 112.809 471.619 112.477 474.236 112.477H536.17V127.711H474.236C472.244 127.711 470.721 128.238 469.666 129.293C468.611 130.348 468.084 131.91 468.084 133.98V175.113C468.084 177.066 468.611 178.59 469.666 179.684C470.76 180.738 472.283 181.266 474.236 181.266H521.639V162.164H481.092V146.812H529.197C530.291 146.812 531.307 147.027 532.244 147.457C533.182 147.848 533.982 148.395 534.646 149.098C535.35 149.801 535.896 150.621 536.287 151.559C536.678 152.457 536.873 153.434 536.873 154.488V188.824ZM636.717 189.996C636.717 191.09 636.502 192.105 636.072 193.043C635.682 193.98 635.135 194.801 634.432 195.504C633.768 196.168 632.967 196.695 632.029 197.086C631.092 197.477 630.096 197.672 629.041 197.672C628.104 197.672 627.146 197.496 626.17 197.145C625.232 196.793 624.393 196.227 623.65 195.445L567.986 137.32V196.5H552.752V118.98C552.752 117.418 553.182 116.012 554.041 114.762C554.939 113.473 556.072 112.516 557.439 111.891C558.885 111.305 560.369 111.168 561.893 111.48C563.416 111.754 564.725 112.457 565.818 113.59L621.482 171.656V112.477H636.717V189.996ZM723.553 162.164H675.447V146.812H723.553V162.164ZM730.408 196.5H675.447C673.338 196.5 671.033 196.129 668.533 195.387C666.033 194.645 663.709 193.434 661.561 191.754C659.451 190.035 657.674 187.828 656.229 185.133C654.822 182.398 654.119 179.059 654.119 175.113V120.152C654.119 119.098 654.314 118.102 654.705 117.164C655.096 116.227 655.623 115.406 656.287 114.703C656.99 114 657.811 113.453 658.748 113.062C659.686 112.672 660.701 112.477 661.795 112.477H730.408V127.711H669.354V175.113C669.354 177.105 669.881 178.629 670.936 179.684C671.99 180.738 673.533 181.266 675.564 181.266H730.408V196.5Z" fill="white" style="fill:white;fill-opacity:1;"/>
<path d="M849.705 112.477L796.678 196.5H780.33L833.416 112.477H849.705Z" fill="white" fill-opacity="0.24" style="fill:white;fill-opacity:0.24;"/>
<path d="M934.814 160.172H898.721V196.5H884.541V111.188H939.971V122.848H898.721V148.57H934.814V160.172ZM999.736 131.93C1002 131.93 1004.19 132.086 1006.3 132.398C1008.45 132.711 1010.13 133.082 1011.34 133.512L1009.35 147.34C1007.2 146.871 1005.07 146.52 1002.96 146.285C1000.89 146.051 998.818 145.934 996.748 145.934C994.404 145.934 992.295 146.168 990.42 146.637C988.545 147.105 986.885 147.828 985.439 148.805C983.877 149.742 982.549 150.934 981.455 152.379C980.361 153.824 979.443 155.484 978.701 157.359V196.5H964.697V133.102H977.822L978.408 141.891L978.467 143.355C981.045 139.801 984.131 137.008 987.725 134.977C991.357 132.945 995.361 131.93 999.736 131.93ZM1068.47 196.5C1068.04 195.719 1067.69 194.781 1067.41 193.688C1067.18 192.555 1066.96 191.383 1066.77 190.172C1065.79 191.188 1064.68 192.164 1063.43 193.102C1062.22 194 1060.85 194.781 1059.33 195.445C1057.8 196.148 1056.16 196.695 1054.4 197.086C1052.65 197.477 1050.75 197.672 1048.72 197.672C1045.44 197.672 1042.43 197.203 1039.7 196.266C1037 195.289 1034.7 193.961 1032.78 192.281C1030.83 190.641 1029.31 188.668 1028.21 186.363C1027.16 184.02 1026.63 181.5 1026.63 178.805C1026.63 175.328 1027.31 172.262 1028.68 169.605C1030.09 166.91 1032.12 164.684 1034.78 162.926C1037.24 161.285 1040.26 160.035 1043.86 159.176C1047.49 158.316 1051.59 157.887 1056.16 157.887H1066.36V153.609C1066.36 151.969 1066.06 150.484 1065.48 149.156C1064.93 147.828 1064.13 146.676 1063.08 145.699C1061.94 144.723 1060.56 143.98 1058.92 143.473C1057.31 142.926 1055.46 142.652 1053.35 142.652C1051.44 142.652 1049.76 142.887 1048.31 143.355C1046.9 143.824 1045.73 144.469 1044.79 145.289C1043.86 146.031 1043.15 146.949 1042.69 148.043C1042.26 149.098 1042.04 150.23 1042.04 151.441H1027.98C1028.02 148.902 1028.62 146.461 1029.79 144.117C1030.97 141.773 1032.69 139.703 1034.95 137.906C1037.14 136.07 1039.83 134.625 1043.04 133.57C1046.28 132.477 1049.97 131.93 1054.11 131.93C1057.82 131.93 1061.28 132.398 1064.48 133.336C1067.72 134.234 1070.52 135.582 1072.86 137.379C1075.21 139.176 1077.04 141.461 1078.37 144.234C1079.7 146.969 1080.36 150.133 1080.36 153.727V181.91C1080.36 184.762 1080.56 187.34 1080.95 189.645C1081.38 191.91 1081.98 193.863 1082.76 195.504V196.5H1068.47ZM1051.42 186.422C1053.25 186.422 1054.95 186.188 1056.51 185.719C1058.12 185.25 1059.56 184.645 1060.85 183.902C1062.14 183.16 1063.25 182.32 1064.19 181.383C1065.13 180.445 1065.85 179.469 1066.36 178.453V166.734H1057.33C1054.29 166.734 1051.65 167.027 1049.42 167.613C1047.2 168.16 1045.42 168.961 1044.09 170.016C1042.92 170.914 1042.04 171.988 1041.46 173.238C1040.91 174.488 1040.63 175.895 1040.63 177.457C1040.63 178.746 1040.87 179.957 1041.34 181.09C1041.81 182.184 1042.49 183.121 1043.39 183.902C1044.29 184.684 1045.4 185.309 1046.73 185.777C1048.06 186.207 1049.62 186.422 1051.42 186.422ZM1108.02 133.102L1108.43 140.074C1109.64 137.535 1111.3 135.543 1113.41 134.098C1115.56 132.652 1118.13 131.93 1121.14 131.93C1122.71 131.93 1124.11 132.105 1125.36 132.457C1126.61 132.809 1127.69 133.355 1128.58 134.098C1129.29 134.645 1129.91 135.309 1130.46 136.09C1131.01 136.832 1131.47 137.691 1131.87 138.668C1132.41 137.77 1133.04 136.93 1133.74 136.148C1134.44 135.367 1135.21 134.703 1136.03 134.156C1137.08 133.453 1138.25 132.906 1139.54 132.516C1140.87 132.125 1142.31 131.93 1143.88 131.93C1145.91 131.93 1147.76 132.281 1149.44 132.984C1151.16 133.648 1152.65 134.684 1153.9 136.09C1155.15 137.574 1156.1 139.508 1156.77 141.891C1157.47 144.234 1157.82 147.066 1157.82 150.387V196.5H1144.93V150.27C1144.93 149.02 1144.79 147.965 1144.52 147.105C1144.25 146.207 1143.86 145.484 1143.35 144.938C1142.84 144.43 1142.22 144.059 1141.47 143.824C1140.77 143.59 1139.99 143.473 1139.13 143.473C1138.23 143.473 1137.45 143.59 1136.79 143.824C1136.12 144.059 1135.54 144.391 1135.03 144.82C1134.56 145.211 1134.17 145.68 1133.86 146.227C1133.54 146.734 1133.31 147.32 1133.15 147.984C1133.15 148.141 1133.15 148.336 1133.15 148.57C1133.15 148.766 1133.15 149.059 1133.15 149.449V196.5H1120.5V150.211C1120.5 148.961 1120.36 147.906 1120.09 147.047C1119.85 146.148 1119.48 145.445 1118.97 144.938C1118.47 144.43 1117.86 144.059 1117.16 143.824C1116.49 143.59 1115.73 143.473 1114.87 143.473C1113.94 143.473 1113.1 143.609 1112.35 143.883C1111.65 144.117 1111.04 144.488 1110.54 144.996C1110.15 145.348 1109.79 145.758 1109.48 146.227C1109.21 146.695 1108.96 147.223 1108.72 147.809V196.5H1095.83V133.102H1108.02ZM1201.71 197.672C1197.02 197.672 1192.72 196.891 1188.82 195.328C1184.95 193.766 1181.63 191.598 1178.86 188.824C1176.08 186.09 1173.94 182.867 1172.41 179.156C1170.93 175.406 1170.19 171.363 1170.19 167.027V164.625C1170.19 159.664 1170.97 155.172 1172.53 151.148C1174.09 147.125 1176.24 143.688 1178.97 140.836C1181.71 137.984 1184.87 135.797 1188.47 134.273C1192.1 132.711 1195.97 131.93 1200.07 131.93C1204.64 131.93 1208.68 132.711 1212.2 134.273C1215.71 135.797 1218.66 137.926 1221.04 140.66C1223.43 143.434 1225.22 146.734 1226.44 150.562C1227.65 154.391 1228.25 158.57 1228.25 163.102V169.137H1184.31V169.43C1184.74 172.203 1185.4 174.527 1186.3 176.402C1187.2 178.277 1188.43 179.957 1189.99 181.441C1191.55 183.004 1193.39 184.215 1195.5 185.074C1197.65 185.934 1199.99 186.363 1202.53 186.363C1206.01 186.363 1209.25 185.699 1212.26 184.371C1215.26 183.004 1217.74 181.07 1219.7 178.57L1227.2 185.836C1225.09 188.883 1221.85 191.617 1217.47 194.039C1213.13 196.461 1207.88 197.672 1201.71 197.672ZM1200.01 143.297C1198.02 143.297 1196.16 143.668 1194.44 144.41C1192.76 145.113 1191.26 146.129 1189.93 147.457C1188.6 148.824 1187.49 150.465 1186.59 152.379C1185.69 154.293 1185.03 156.461 1184.6 158.883H1214.42V157.945C1214.42 156.109 1214.09 154.293 1213.43 152.496C1212.76 150.66 1211.83 149.059 1210.62 147.691C1209.44 146.363 1207.96 145.309 1206.16 144.527C1204.4 143.707 1202.35 143.297 1200.01 143.297ZM1249.46 196.5L1237.22 133.102H1249.87L1255.73 171.949L1256.73 179.273L1258.02 171.949L1266.28 133.102H1275.48L1283.74 171.832L1285.09 179.508L1286.2 171.773L1291.88 133.102H1304.6L1292.35 196.5H1280.46L1272.26 160.523L1270.79 152.672L1269.38 160.523L1261.36 196.5H1249.46ZM1313.68 164.215C1313.68 159.605 1314.35 155.348 1315.67 151.441C1317 147.496 1318.94 144.078 1321.47 141.188C1323.97 138.297 1327.04 136.031 1330.67 134.391C1334.31 132.75 1338.45 131.93 1343.1 131.93C1347.74 131.93 1351.88 132.75 1355.52 134.391C1359.19 136.031 1362.29 138.297 1364.83 141.188C1367.33 144.078 1369.25 147.496 1370.58 151.441C1371.9 155.348 1372.57 159.605 1372.57 164.215V165.445C1372.57 170.094 1371.9 174.371 1370.58 178.277C1369.25 182.184 1367.33 185.582 1364.83 188.473C1362.33 191.363 1359.25 193.629 1355.58 195.27C1351.94 196.91 1347.82 197.73 1343.21 197.73C1338.56 197.73 1334.4 196.91 1330.73 195.27C1327.06 193.629 1323.97 191.363 1321.47 188.473C1318.94 185.582 1317 182.184 1315.67 178.277C1314.35 174.371 1313.68 170.094 1313.68 165.445V164.215ZM1327.69 165.445C1327.69 168.297 1327.98 170.992 1328.56 173.531C1329.19 176.07 1330.15 178.297 1331.44 180.211C1332.69 182.125 1334.29 183.648 1336.24 184.781C1338.19 185.875 1340.52 186.422 1343.21 186.422C1345.83 186.422 1348.12 185.875 1350.07 184.781C1352.02 183.648 1353.62 182.125 1354.87 180.211C1356.12 178.297 1357.04 176.07 1357.63 173.531C1358.25 170.992 1358.56 168.297 1358.56 165.445V164.215C1358.56 161.441 1358.25 158.785 1357.63 156.246C1357 153.707 1356.08 151.48 1354.87 149.566C1353.58 147.652 1351.96 146.129 1350.01 144.996C1348.1 143.863 1345.79 143.297 1343.1 143.297C1340.44 143.297 1338.13 143.863 1336.18 144.996C1334.27 146.129 1332.69 147.652 1331.44 149.566C1330.15 151.48 1329.19 153.707 1328.56 156.246C1327.98 158.785 1327.69 161.441 1327.69 164.215V165.445ZM1432.16 131.93C1434.42 131.93 1436.61 132.086 1438.72 132.398C1440.87 132.711 1442.55 133.082 1443.76 133.512L1441.77 147.34C1439.62 146.871 1437.49 146.52 1435.38 146.285C1433.31 146.051 1431.24 145.934 1429.17 145.934C1426.83 145.934 1424.72 146.168 1422.84 146.637C1420.97 147.105 1419.31 147.828 1417.86 148.805C1416.3 149.742 1414.97 150.934 1413.88 152.379C1412.78 153.824 1411.87 155.484 1411.12 157.359V196.5H1397.12V133.102H1410.24L1410.83 141.891L1410.89 143.355C1413.47 139.801 1416.55 137.008 1420.15 134.977C1423.78 132.945 1427.78 131.93 1432.16 131.93ZM1482.2 168.902L1474.58 176.109V196.5H1460.52V106.5H1474.58V159.469L1480.38 153.023L1499.31 133.102H1516.18L1491.51 159.527L1519.76 196.5H1502.41L1482.2 168.902Z" fill="#0288D1" style="fill:#0288D1;fill:color(display-p3 0.0078 0.5333 0.8196);fill-opacity:1;"/>
</svg>
