<svg width="1494" height="512" viewBox="0 0 1494 512" fill="none" xmlns="http://www.w3.org/2000/svg">
<rect x="71" y="124" width="370" height="264" rx="45" stroke="black" style="stroke:black;stroke-opacity:1;" stroke-width="30"/>
<ellipse cx="201" cy="262" rx="25" ry="44" fill="black" style="fill:black;fill-opacity:1;"/>
<ellipse cx="311" cy="262" rx="25" ry="44" fill="black" style="fill:black;fill-opacity:1;"/>
<path d="M726.75 346H694.25V302H580V346H547.5V256.375C547.5 243.292 549.75 231.25 554.25 220.25C558.75 209.25 565 199.792 573 191.875C581 183.958 590.458 177.792 601.375 173.375C612.292 168.958 624.208 166.75 637.125 166.75H710.375C712.625 166.75 714.75 167.167 716.75 168C718.75 168.833 720.5 170 722 171.5C723.5 173 724.667 174.75 725.5 176.75C726.333 178.75 726.75 180.875 726.75 183.125V346ZM580 269.5H694.25V199.25H637.125C636.125 199.25 634 199.417 630.75 199.75C627.583 200 623.875 200.708 619.625 201.875C615.458 203.042 611.042 204.833 606.375 207.25C601.708 209.667 597.417 213 593.5 217.25C589.583 221.5 586.333 226.833 583.75 233.25C581.25 239.583 580 247.292 580 256.375V269.5ZM797.375 346H764.875V166.75H797.375V346ZM1012.25 329.625C1012.25 331.958 1011.83 334.125 1011 336.125C1010.17 338.125 1009 339.875 1007.5 341.375C1006.08 342.792 1004.38 343.917 1002.38 344.75C1000.38 345.583 998.208 346 995.875 346H878.625C875.625 346 872.375 345.667 868.875 345C865.458 344.25 862.042 343.125 858.625 341.625C855.292 340.125 852.083 338.208 849 335.875C845.917 333.458 843.167 330.583 840.75 327.25C838.417 323.833 836.542 319.917 835.125 315.5C833.708 311 833 305.958 833 300.375V212.375C833 209.375 833.333 206.167 834 202.75C834.75 199.25 835.875 195.833 837.375 192.5C838.875 189.083 840.833 185.833 843.25 182.75C845.667 179.667 848.542 176.958 851.875 174.625C855.292 172.208 859.208 170.292 863.625 168.875C868.042 167.458 873.042 166.75 878.625 166.75H1010.75V199.25H878.625C874.375 199.25 871.125 200.375 868.875 202.625C866.625 204.875 865.5 208.208 865.5 212.625V300.375C865.5 304.542 866.625 307.792 868.875 310.125C871.208 312.375 874.458 313.5 878.625 313.5H979.75V272.75H893.25V240H995.875C998.208 240 1000.38 240.458 1002.38 241.375C1004.38 242.208 1006.08 243.375 1007.5 244.875C1009 246.375 1010.17 248.125 1011 250.125C1011.83 252.042 1012.25 254.125 1012.25 256.375V329.625ZM1225.25 332.125C1225.25 334.458 1224.79 336.625 1223.88 338.625C1223.04 340.625 1221.88 342.375 1220.38 343.875C1218.96 345.292 1217.25 346.417 1215.25 347.25C1213.25 348.083 1211.12 348.5 1208.88 348.5C1206.88 348.5 1204.83 348.125 1202.75 347.375C1200.75 346.625 1198.96 345.417 1197.38 343.75L1078.62 219.75V346H1046.12V180.625C1046.12 177.292 1047.04 174.292 1048.88 171.625C1050.79 168.875 1053.21 166.833 1056.12 165.5C1059.21 164.25 1062.38 163.958 1065.62 164.625C1068.88 165.208 1071.67 166.708 1074 169.125L1192.75 293V166.75H1225.25V332.125ZM1410.5 272.75H1307.88V240H1410.5V272.75ZM1425.12 346H1307.88C1303.38 346 1298.46 345.208 1293.12 343.625C1287.79 342.042 1282.83 339.458 1278.25 335.875C1273.75 332.208 1269.96 327.5 1266.88 321.75C1263.88 315.917 1262.38 308.792 1262.38 300.375V183.125C1262.38 180.875 1262.79 178.75 1263.62 176.75C1264.46 174.75 1265.58 173 1267 171.5C1268.5 170 1270.25 168.833 1272.25 168C1274.25 167.167 1276.42 166.75 1278.75 166.75H1425.12V199.25H1294.88V300.375C1294.88 304.625 1296 307.875 1298.25 310.125C1300.5 312.375 1303.79 313.5 1308.12 313.5H1425.12V346Z" fill="black" style="fill:black;fill-opacity:1;"/>
</svg>
