<svg width="1076" height="300" viewBox="0 0 1076 300" fill="none" xmlns="http://www.w3.org/2000/svg">
<g clip-path="url(#clip0_3406_405)">
<rect x="9.16031" y="59.1603" width="253.435" height="181.679" rx="36.6412" stroke="black" style="stroke:black;stroke-opacity:1;" stroke-width="18.3206"/>
<ellipse cx="100" cy="149.618" rx="16.0305" ry="28.626" fill="black" style="fill:black;fill-opacity:1;"/>
<ellipse cx="170.991" cy="149.618" rx="16.0305" ry="28.626" fill="black" style="fill:black;fill-opacity:1;"/>
<path d="M400.002 196.5H385.275V176.562H333.506V196.5H318.779V155.889C318.779 149.96 319.799 144.504 321.838 139.52C323.877 134.535 326.709 130.249 330.334 126.662C333.959 123.075 338.245 120.281 343.191 118.279C348.138 116.278 353.538 115.277 359.391 115.277H392.582C393.602 115.277 394.564 115.466 395.471 115.844C396.377 116.221 397.17 116.75 397.85 117.43C398.529 118.109 399.058 118.902 399.436 119.809C399.813 120.715 400.002 121.678 400.002 122.697V196.5ZM333.506 161.836H385.275V130.004H359.391C358.938 130.004 357.975 130.079 356.502 130.23C355.067 130.344 353.387 130.665 351.461 131.193C349.573 131.722 347.572 132.534 345.457 133.629C343.342 134.724 341.398 136.234 339.623 138.16C337.848 140.086 336.376 142.503 335.205 145.41C334.072 148.28 333.506 151.773 333.506 155.889V161.836ZM432.004 196.5H417.277V115.277H432.004V196.5ZM529.369 189.08C529.369 190.137 529.18 191.119 528.803 192.025C528.425 192.932 527.896 193.725 527.217 194.404C526.575 195.046 525.801 195.556 524.895 195.934C523.988 196.311 523.007 196.5 521.949 196.5H468.82C467.461 196.5 465.988 196.349 464.402 196.047C462.854 195.707 461.306 195.197 459.758 194.518C458.247 193.838 456.794 192.969 455.396 191.912C453.999 190.817 452.753 189.514 451.658 188.004C450.601 186.456 449.751 184.681 449.109 182.68C448.467 180.641 448.146 178.356 448.146 175.826V135.951C448.146 134.592 448.298 133.138 448.6 131.59C448.939 130.004 449.449 128.456 450.129 126.945C450.809 125.397 451.696 123.924 452.791 122.527C453.886 121.13 455.189 119.903 456.699 118.846C458.247 117.751 460.022 116.882 462.023 116.24C464.025 115.598 466.29 115.277 468.82 115.277H528.689V130.004H468.82C466.895 130.004 465.422 130.514 464.402 131.533C463.383 132.553 462.873 134.063 462.873 136.064V175.826C462.873 177.714 463.383 179.187 464.402 180.244C465.46 181.264 466.932 181.773 468.82 181.773H514.643V163.309H475.447V148.469H521.949C523.007 148.469 523.988 148.676 524.895 149.092C525.801 149.469 526.575 149.998 527.217 150.678C527.896 151.357 528.425 152.15 528.803 153.057C529.18 153.925 529.369 154.869 529.369 155.889V189.08ZM625.885 190.213C625.885 191.27 625.677 192.252 625.262 193.158C624.884 194.064 624.355 194.857 623.676 195.537C623.034 196.179 622.26 196.689 621.354 197.066C620.447 197.444 619.484 197.633 618.465 197.633C617.559 197.633 616.633 197.463 615.689 197.123C614.783 196.783 613.971 196.236 613.254 195.48L559.445 139.293V196.5H544.719V121.564C544.719 120.054 545.134 118.695 545.965 117.486C546.833 116.24 547.928 115.315 549.25 114.711C550.647 114.145 552.082 114.012 553.555 114.314C555.027 114.579 556.292 115.258 557.35 116.354L611.158 172.484V115.277H625.885V190.213ZM709.826 163.309H663.324V148.469H709.826V163.309ZM716.453 196.5H663.324C661.285 196.5 659.057 196.141 656.641 195.424C654.224 194.706 651.977 193.536 649.9 191.912C647.861 190.251 646.143 188.117 644.746 185.512C643.387 182.868 642.707 179.64 642.707 175.826V122.697C642.707 121.678 642.896 120.715 643.273 119.809C643.651 118.902 644.161 118.109 644.803 117.43C645.482 116.75 646.275 116.221 647.182 115.844C648.088 115.466 649.07 115.277 650.127 115.277H716.453V130.004H657.434V175.826C657.434 177.752 657.943 179.225 658.963 180.244C659.982 181.264 661.474 181.773 663.438 181.773H716.453V196.5Z" fill="black" style="fill:black;fill-opacity:1;"/>
<path d="M834.252 112.477L781.225 196.5H764.877L817.963 112.477H834.252Z" fill="black" fill-opacity="0.24" style="fill:black;fill-opacity:0.24;"/>
<path d="M926.084 170.25C925.693 174.391 924.717 178.16 923.154 181.559C921.592 184.918 919.541 187.789 917.002 190.172C914.424 192.594 911.357 194.469 907.803 195.797C904.287 197.086 900.381 197.73 896.084 197.73C892.568 197.73 889.326 197.262 886.357 196.324C883.428 195.348 880.811 193.98 878.506 192.223C876.279 190.582 874.326 188.609 872.646 186.305C871.006 183.961 869.619 181.402 868.486 178.629C867.354 175.895 866.494 172.926 865.908 169.723C865.361 166.52 865.088 163.18 865.088 159.703V148.043C865.088 144.723 865.361 141.52 865.908 138.434C866.455 135.348 867.275 132.438 868.369 129.703C869.541 126.656 871.045 123.902 872.881 121.441C874.756 118.941 876.904 116.812 879.326 115.055C881.631 113.453 884.17 112.203 886.943 111.305C889.756 110.406 892.822 109.957 896.143 109.957C900.635 109.957 904.639 110.621 908.154 111.949C911.709 113.277 914.736 115.152 917.236 117.574C919.775 120.035 921.768 123.004 923.213 126.48C924.697 129.957 925.654 133.824 926.084 138.082H912.021C911.787 135.543 911.299 133.258 910.557 131.227C909.854 129.156 908.877 127.398 907.627 125.953C906.338 124.508 904.756 123.414 902.881 122.672C901.006 121.891 898.76 121.5 896.143 121.5C894.307 121.5 892.646 121.754 891.162 122.262C889.717 122.77 888.428 123.492 887.295 124.43C885.732 125.562 884.424 127.047 883.369 128.883C882.354 130.68 881.514 132.691 880.85 134.918C880.342 136.871 879.951 138.961 879.678 141.188C879.443 143.375 879.326 145.621 879.326 147.926V159.703C879.326 162.555 879.482 165.23 879.795 167.73C880.146 170.23 880.674 172.516 881.377 174.586C881.924 176.305 882.607 177.867 883.428 179.273C884.287 180.68 885.303 181.891 886.475 182.906C887.686 184 889.072 184.84 890.635 185.426C892.236 185.973 894.053 186.246 896.084 186.246C898.506 186.246 900.654 185.895 902.529 185.191C904.404 184.488 906.006 183.453 907.334 182.086C908.623 180.758 909.658 179.098 910.439 177.105C911.221 175.113 911.729 172.828 911.963 170.25H926.084ZM955.908 184.898H996.631V196.5H941.787V111.188H955.908V184.898ZM1014.74 111.188H1065.01V122.848H1046.79V184.898H1065.01V196.5H1014.74V184.898H1032.55V122.848H1014.74V111.188Z" fill="#E94E4E" style="fill:#E94E4E;fill:color(display-p3 0.9137 0.3059 0.3059);fill-opacity:1;"/>
</g>
<defs>
<clipPath id="clip0_3406_405">
<rect width="1076" height="300" fill="white" style="fill:white;fill-opacity:1;"/>
</clipPath>
</defs>
</svg>
