<svg width="112" height="112" viewBox="0 0 112 112" fill="none" xmlns="http://www.w3.org/2000/svg">
<path fill-rule="evenodd" clip-rule="evenodd" d="M56 1L104 28.7128V84.1384L56 111.851L8 84.1384V28.7128L56 1ZM12.5 29.5788L42.35 46.8127L56 23.1702L69.65 46.8127L99.5 29.5788L56 4.4641L12.5 29.5788ZM101 32.1769L71.15 49.4108L84.8 73.0533L57.5 88.815V107.521L101 82.4064V32.1769ZM54.5 107.521V88.815L27.2 73.0533L40.85 49.4108L11 32.1769V82.4064L54.5 107.521ZM43.4481 50.9108L31.2981 71.9552L54.5 85.3509V59.0237V57.2916L53 56.4256L43.4481 50.9108ZM57.5 85.3509L80.7019 71.9552L68.5519 50.9108L59 56.4256L57.5 57.2916V59.0237V85.3509ZM67.0519 48.3127L56 29.1702L44.9481 48.3127L56 54.6936L67.0519 48.3127Z" fill="url(#paint0_linear_1456_58)"/>
<path opacity="0.6" fill-rule="evenodd" clip-rule="evenodd" d="M54.5 53.8275V55.5596L53 56.4256L9.78369 81.3766L11.2837 83.9746L56 58.1577L100.716 83.9746L102.216 81.3766L59 56.4256L57.5 55.5596V53.8275V3.9256H54.5V53.8275Z" fill="url(#paint1_linear_1456_58)"/>
<defs>
<linearGradient id="paint0_linear_1456_58" x1="56" y1="-54.4256" x2="-53.7143" y2="40.5897" gradientUnits="userSpaceOnUse">
<stop stop-color="#4EF1BA"/>
<stop offset="0.501904" stop-color="#16CED1"/>
<stop offset="1" stop-color="#3773F2"/>
</linearGradient>
<linearGradient id="paint1_linear_1456_58" x1="170.147" y1="41.1251" x2="91.8627" y2="164.629" gradientUnits="userSpaceOnUse">
<stop stop-color="#4EF1BA"/>
<stop offset="0.501904" stop-color="#16CED1"/>
<stop offset="1" stop-color="#3773F2"/>
</linearGradient>
</defs>
</svg>
